<svg width="803" height="275" viewBox="0 0 803 275" fill="none" xmlns="http://www.w3.org/2000/svg">
<path d="M0.432251 5.5L104.765 119.859C130.939 148.548 177.993 140.684 193.417 105.045V105.045C211.036 64.3317 267.695 61.501 289.285 100.255L296.242 112.744C317.333 150.604 370.202 154.709 396.885 120.56L405.85 109.087C434.153 72.8637 489.049 73.1481 516.976 109.663L565.443 173.034C574.827 185.303 589.391 192.5 604.837 192.5V192.5C616.83 192.5 628.417 188.154 637.451 180.267L801 37.5" stroke="black" stroke-width="6"/>
<path d="M-67 2.5L91.5305 194.653C116.371 224.762 164.257 217.98 179.76 182.158V182.158C196.957 142.421 252.256 139.658 273.328 177.483L281.552 192.244C302.643 230.104 355.512 234.209 382.195 200.06L391.159 188.587C419.463 152.364 474.359 152.648 502.286 189.163L546.519 246.999C558.571 262.757 577.277 272 597.115 272V272C604.807 272 612.435 270.607 619.63 267.888L768.861 211.5" stroke="black" stroke-width="6"/>
</svg>
