<svg width="256" height="256" viewBox="0 0 256 256" fill="none" xmlns="http://www.w3.org/2000/svg">
<g clip-path="url(#clip0_220_1951)">
<path d="M83.1077 236.503C94.7448 248.009 110.839 255.143 128.616 255.143C142.351 255.143 155.081 250.873 165.522 243.619C148.803 243.619 132.31 237.155 120.014 224.98C108.966 232.645 96.0455 236.503 83.1077 236.503Z" fill="url(#paint0_diamond_220_1951)"/>
<path d="M189.091 213.285C184.547 225.631 176.222 236.194 165.522 243.619C178.286 243.619 191.189 239.915 202.445 232.13C213.7 224.345 221.644 213.628 225.997 201.761C215.279 209.169 202.41 213.285 189.108 213.285H189.091Z" fill="url(#paint1_diamond_220_1951)"/>
<path d="M227.696 163.539C231.13 176.246 230.436 189.604 225.979 201.761C236.437 194.525 244.848 184.168 249.548 171.41C254.248 158.652 254.543 145.362 251.231 133.17C246.739 145.311 238.588 155.994 227.696 163.539Z" fill="url(#paint2_diamond_220_1951)"/>
<path d="M230.454 100.898C240.634 109.352 247.831 120.687 251.213 133.17C255.584 121.304 256.468 108.066 252.913 94.9478C249.358 81.8297 241.9 70.7865 232.101 62.6755C235.466 75.1592 234.98 88.5345 230.436 100.898H230.454Z" fill="url(#paint3_diamond_220_1951)"/>
<path d="M196.392 48.0141C209.642 49.163 222.094 54.376 232.119 62.6755C228.824 50.4834 221.852 39.1315 211.342 30.3861C200.832 21.6407 188.293 16.8393 175.581 15.759C185.587 24.0757 192.941 35.3076 196.392 48.0141Z" fill="url(#paint4_diamond_220_1951)"/>
<path d="M175.581 15.759C165.816 7.63092 153.52 2.2808 139.837 1.0976C126.153 -0.085602 113.111 3.0696 102.046 9.39715C115.071 10.5289 127.61 15.5704 137.808 24.0071C149.323 17.4395 162.556 14.6444 175.581 15.759V15.759Z" fill="url(#paint5_diamond_220_1951)"/>
<path d="M75.8757 37.5881C81.4948 25.6704 90.7213 15.879 102.029 9.39711C89.3165 8.2825 76.1359 10.8718 64.2386 17.6624C52.3413 24.4529 43.479 34.4329 38.1027 45.8877C49.4276 39.4401 62.6257 36.4392 75.8757 37.5881Z" fill="url(#paint6_diamond_220_1951)"/>
<path d="M33.0384 83.8187C30.7318 70.8721 32.6048 57.6168 38.1199 45.8877C27.0551 52.181 17.7766 61.7837 11.9667 74.0959C6.15677 86.408 4.69996 99.6119 6.91986 112.044C12.4523 100.332 21.5227 90.4035 33.0384 83.8187Z" fill="url(#paint7_diamond_220_1951)"/>
<path d="M24.7658 145.98C15.3659 136.685 9.20917 124.768 6.9199 112.027C1.50888 123.464 -0.537591 136.583 1.85574 149.958C4.24908 163.333 10.7007 174.977 19.7364 183.893C17.4818 171.153 19.1467 157.88 24.7658 145.962V145.98Z" fill="url(#paint8_diamond_220_1951)"/>
<path d="M19.7363 183.911C21.9389 196.343 27.8875 208.261 37.5996 217.863C50.1733 230.296 66.6318 236.503 83.1076 236.503C73.9505 227.449 67.5683 215.703 65.2444 202.55C47.8493 202.567 31.5816 195.605 19.7363 183.911V183.911Z" fill="url(#paint9_diamond_220_1951)"/>
<path d="M189.091 213.285C181.772 213.285 174.332 212.05 167.065 209.427C157.925 206.134 150.017 201.007 143.565 194.628C140.444 203.099 135.466 211.056 128.598 217.863C125.91 220.521 123.014 222.888 120.014 224.98C132.293 237.155 148.786 243.602 165.522 243.62C176.222 236.195 184.547 225.649 189.091 213.285Z" fill="#BEB5B5" stroke="#F8F8EA" stroke-miterlimit="10"/>
<path d="M227.696 163.539C221.713 167.689 214.897 170.895 207.422 172.867C201.855 174.342 196.271 175.028 190.773 175.045C192.195 180.292 192.958 185.814 192.958 191.507C192.958 199.155 191.588 206.494 189.091 213.285C202.393 213.285 215.261 209.169 225.979 201.762C230.437 189.604 231.13 176.246 227.696 163.539V163.539Z" fill="#BEB5B5" stroke="#F8F8EA" stroke-miterlimit="10"/>
<path d="M230.454 100.898C227.956 107.689 224.228 114.188 219.268 120.035C215.573 124.391 211.394 128.129 206.885 131.25C211.099 134.748 214.932 138.829 218.227 143.493C222.667 149.752 225.806 156.543 227.696 163.522C238.588 155.977 246.739 145.294 251.231 133.153C247.831 120.669 240.651 109.335 230.471 100.881L230.454 100.898Z" fill="#BEB5B5" stroke="#F8F8EA" stroke-miterlimit="10"/>
<path d="M198.317 70.032C197.814 75.7079 196.566 81.1266 194.693 86.2538C200.173 86.734 205.671 87.9 211.082 89.8549C218.348 92.4785 224.852 96.251 230.454 100.898C234.998 88.5345 235.483 75.1763 232.119 62.6756C222.095 54.376 209.625 49.1631 196.392 48.0142C198.283 54.9933 199.011 62.4183 198.335 70.0491L198.317 70.032Z" fill="#BEB5B5" stroke="#F8F8EA" stroke-miterlimit="10"/>
<path d="M137.79 24.0071C143.392 28.6542 148.283 34.3301 152.15 40.9491C155.029 45.8877 157.162 51.0321 158.584 56.2965C163.354 53.5871 168.539 51.4265 174.106 49.9518C181.581 47.9798 189.091 47.3796 196.375 48.0141C192.924 35.3075 185.57 24.0757 175.563 15.759C162.539 14.6444 149.306 17.4395 137.79 24.0071Z" fill="#BEB5B5" stroke="#F8F8EA" stroke-miterlimit="10"/>
<path d="M75.8757 37.5883C83.1598 38.2227 90.4612 40.0918 97.4678 43.3156C102.688 45.7163 107.423 48.7343 111.637 52.2325C113.961 47.3111 116.961 42.5954 120.673 38.2227C125.65 32.3582 131.46 27.6082 137.79 24.0072C127.61 15.5533 115.054 10.529 102.029 9.39722C90.704 15.8791 81.4949 25.6705 75.8757 37.5883Z" fill="#BEB5B5" stroke="#F8F8EA" stroke-miterlimit="10"/>
<path d="M33.0385 83.8189C39.3687 80.2007 46.4446 77.5943 54.0582 76.2739C59.7293 75.2793 65.3658 75.0735 70.8289 75.5365C69.875 70.1864 69.5975 64.6133 70.1005 58.9546C70.7768 51.3409 72.7886 44.1388 75.8757 37.5884C62.6256 36.4395 49.4449 39.4403 38.1026 45.8879C32.5876 57.617 30.7145 70.8552 33.0211 83.8189H33.0385Z" fill="#BEB5B5" stroke="#F8F8EA" stroke-miterlimit="10"/>
<path d="M24.7659 145.98C27.8529 139.429 32.1366 133.29 37.5997 127.872C41.6753 123.842 46.1671 120.481 50.9191 117.754C47.0343 113.913 43.583 109.506 40.7041 104.585C36.8366 97.9658 34.3045 90.9352 33.0385 83.8188C21.5227 90.4036 12.4523 100.332 6.91992 112.044C9.2092 124.768 15.366 136.686 24.7659 145.997V145.98Z" fill="#BEB5B5" stroke="#F8F8EA" stroke-miterlimit="10"/>
<path d="M112.799 216.492C107.214 208.621 103.711 199.927 102.133 191.044C94.6581 196.223 85.9693 199.91 76.3959 201.59C72.6499 202.242 68.9038 202.55 65.2271 202.55C67.551 215.703 73.9506 227.449 83.0903 236.503C96.0282 236.503 108.966 232.645 119.996 224.98C117.395 222.408 114.967 219.578 112.782 216.492H112.799Z" fill="#BEB5B5" stroke="#F8F8EA" stroke-miterlimit="10"/>
<path d="M64.2558 191.507C64.2558 181.887 66.4237 172.782 70.2912 164.619C61.1688 164.619 51.9076 162.716 43.0974 158.652C36.0908 155.411 29.9341 151.09 24.7658 145.98C19.1467 157.897 17.4818 171.17 19.7364 183.911C31.5816 195.588 47.8494 202.568 65.2444 202.55C64.6027 198.967 64.2558 195.28 64.2558 191.507V191.507Z" fill="#BEB5B5" stroke="#F8F8EA" stroke-miterlimit="10"/>
<path d="M145.248 156.371C148.647 168.941 148.092 182.333 143.583 194.628C150.034 201.007 157.943 206.134 167.083 209.427C174.349 212.05 181.789 213.285 189.108 213.285C191.606 206.494 192.976 199.155 192.976 191.507C192.976 185.814 192.213 180.293 190.79 175.045C173.534 175.045 157.197 168.152 145.265 156.371H145.248Z" fill="url(#paint10_linear_220_1951)" stroke="#F8F8EA" stroke-miterlimit="10"/>
<path d="M206.885 131.25C195.907 138.863 182.969 142.739 169.944 142.756C179.916 151.038 187.304 162.236 190.773 175.045C196.271 175.045 201.855 174.342 207.422 172.868C214.897 170.896 221.713 167.689 227.696 163.539C225.806 156.56 222.667 149.769 218.227 143.51C214.914 138.846 211.099 134.765 206.885 131.267V131.25Z" fill="url(#paint11_linear_220_1951)" stroke="#F8F8EA" stroke-miterlimit="10"/>
<path d="M171.106 116.622C184.079 117.754 196.635 122.727 206.902 131.267C211.411 128.146 215.574 124.408 219.285 120.052C224.262 114.187 227.974 107.706 230.471 100.915C224.869 96.2679 218.366 92.4954 211.099 89.8718C205.688 87.9169 200.173 86.7509 194.71 86.2708C190.131 98.7201 181.789 109.249 171.123 116.64L171.106 116.622Z" fill="url(#paint12_linear_220_1951)" stroke="#F8F8EA" stroke-miterlimit="10"/>
<path d="M156.885 94.5533C168.158 88.1228 181.339 85.0877 194.693 86.2537C196.566 81.1437 197.814 75.7078 198.317 70.0319C198.994 62.4182 198.283 54.9932 196.375 47.9969C189.091 47.3624 181.564 47.9626 174.106 49.9346C168.539 51.4093 163.354 53.5699 158.585 56.2793C162.07 69.0716 161.325 82.4469 156.885 94.5361V94.5533Z" fill="url(#paint13_linear_220_1951)" stroke="#F8F8EA" stroke-miterlimit="10"/>
<path d="M132.431 84.5389C137.929 72.8784 146.965 62.9155 158.584 56.2965C157.162 51.0492 155.029 45.8877 152.15 40.9491C148.283 34.3301 143.392 28.6541 137.79 24.0071C131.46 27.6253 125.633 32.3752 120.673 38.2226C116.979 42.5782 113.978 47.2938 111.637 52.2324C121.904 60.7377 129.067 72.1068 132.431 84.5389Z" fill="url(#paint14_linear_220_1951)" stroke="#F8F8EA" stroke-miterlimit="10"/>
<path d="M111.637 52.2324C107.423 48.7342 102.688 45.7162 97.4677 43.3155C90.4611 40.0746 83.1597 38.2055 75.8757 37.5881C72.7886 44.1386 70.7768 51.3236 70.1004 58.9543C69.5975 64.6303 69.875 70.1862 70.8289 75.5363C84.183 76.6852 96.6352 81.9324 106.607 90.2148C104.353 77.5426 105.966 64.253 111.637 52.2495V52.2324Z" fill="url(#paint15_linear_220_1951)" stroke="#F8F8EA" stroke-miterlimit="10"/>
<path d="M88.7268 109.489C79.5177 100.384 73.1528 88.5859 70.8288 75.5364C65.3485 75.0734 59.7293 75.2792 54.0582 76.2738C46.4446 77.5942 39.3686 80.2006 33.0385 83.8188C34.3045 90.9352 36.8366 97.9658 40.7041 104.585C43.583 109.523 47.0343 113.913 50.9191 117.754C62.5215 111.118 75.7716 108.357 88.7268 109.489V109.489Z" fill="url(#paint16_linear_220_1951)" stroke="#F8F8EA" stroke-miterlimit="10"/>
<path d="M125.702 160.658C121.193 172.885 112.972 183.533 102.133 191.044C103.711 199.927 107.214 208.621 112.799 216.492C114.984 219.578 117.412 222.39 120.014 224.98C123.031 222.888 125.91 220.521 128.598 217.863C135.466 211.073 140.461 203.116 143.565 194.628C134.217 185.368 127.991 173.468 125.702 160.658V160.658Z" fill="url(#paint17_linear_220_1951)" stroke="#F8F8EA" stroke-miterlimit="10"/>
<path d="M107.214 153.079C96.4271 160.538 83.5066 164.602 70.2739 164.602C66.4064 172.765 64.2385 181.887 64.2385 191.49C64.2385 195.263 64.5854 198.949 65.2271 202.533C68.9038 202.533 72.6499 202.225 76.396 201.573C85.9693 199.91 94.6581 196.206 102.133 191.027C99.8437 178.149 101.647 164.859 107.197 153.062L107.214 153.079Z" fill="url(#paint18_linear_220_1951)" stroke="#F8F8EA" stroke-miterlimit="10"/>
<path d="M96.4618 136.394C79.6044 136.394 63.1112 129.826 50.9191 117.771C46.1671 120.498 41.6753 123.859 37.5997 127.889C32.1366 133.29 27.8529 139.446 24.7659 145.997C29.9341 151.107 36.0735 155.428 43.0974 158.669C51.9077 162.733 61.1688 164.637 70.2912 164.637C75.893 152.787 85.0675 142.927 96.4618 136.411V136.394Z" fill="url(#paint19_linear_220_1951)" stroke="#F8F8EA" stroke-miterlimit="10"/>
<path d="M206.382 131.181C191.814 142.842 171.985 144.328 163.891 143.185C169.961 135.468 171.696 121.75 170.829 116.605C188.172 118.32 201.468 126.608 206.382 131.181Z" fill="#BEB5B5" stroke="#BEB5B5"/>
<path d="M169.944 142.756C155.341 142.756 140.669 137.886 128.598 127.872C136.888 136.068 142.421 145.928 145.248 156.371C157.18 168.152 173.517 175.045 190.773 175.045C187.322 162.236 179.916 151.038 169.944 142.756V142.756Z" fill="#BEB5B5" stroke="#F8F8EA" stroke-miterlimit="10"/>
<path d="M156.885 94.5533C152.445 106.608 144.311 117.394 132.986 125.111C144.849 118.217 158.168 115.491 171.106 116.605C181.772 109.215 190.131 98.686 194.692 86.2366C181.338 85.0706 168.158 88.1057 156.885 94.5362V94.5533Z" fill="#BEB5B5" stroke="#F8F8EA" stroke-miterlimit="10"/>
<path d="M132.431 84.5391C135.796 96.937 135.379 110.381 130.593 123.122C136.316 110.758 145.646 100.967 156.885 94.5534C161.342 82.4642 162.07 69.0889 158.584 56.2966C146.965 62.9157 137.929 72.8786 132.431 84.5391Z" fill="#BEB5B5" stroke="#F8F8EA" stroke-miterlimit="10"/>
<path d="M106.607 90.1978C116.545 98.4459 124.02 109.695 127.488 122.847C124.991 109.472 126.968 96.1652 132.449 84.5219C129.084 72.0897 121.921 60.7207 111.654 52.2153C105.983 64.2188 104.353 77.5084 106.625 90.1806L106.607 90.1978Z" fill="#BEB5B5" stroke="#F8F8EA" stroke-miterlimit="10"/>
<path d="M124.766 124.408C114.967 114.856 108.845 102.853 106.607 90.2149C96.6352 81.9497 84.183 76.6853 70.8289 75.5364C73.1528 88.5859 79.5177 100.384 88.7268 109.489C101.647 110.604 114.29 115.577 124.766 124.408Z" fill="#BEB5B5" stroke="#F8F8EA" stroke-miterlimit="10"/>
<path d="M125.702 160.658C123.794 150.027 124.592 138.76 128.598 127.872C123.656 138.366 116.163 146.889 107.197 153.079C101.647 164.877 99.8437 178.149 102.133 191.044C112.972 183.533 121.193 172.885 125.702 160.658Z" fill="#BEB5B5" stroke="#F8F8EA" stroke-miterlimit="10"/>
<path d="M107.214 153.079C111.828 143.287 119.008 134.508 128.616 127.872C118.47 133.668 107.388 136.394 96.4617 136.394C85.0674 142.91 75.8756 152.77 70.2911 164.619C83.5238 164.619 96.4444 160.538 107.232 153.096L107.214 153.079Z" fill="#BEB5B5" stroke="#F8F8EA" stroke-miterlimit="10"/>
<path d="M96.4618 136.864C105.931 131.463 116.892 128.342 128.616 128.342C112.938 126.987 99.0632 120.162 88.7441 109.959C75.7716 108.845 62.5389 111.588 50.9364 118.224C63.1285 130.296 79.6217 136.847 96.4791 136.847L96.4618 136.864Z" fill="#BEB5B5" stroke="#F8F8EA" stroke-miterlimit="10"/>
<path d="M145.681 156.903C149.15 167.192 146.259 186.626 143.947 194.628C138.166 188.912 126.604 173.365 126.604 160.332C136.143 160.332 138.744 159.646 145.681 156.903Z" fill="#BEB5B5" stroke="#BEB5B5"/>
<path d="M128.598 127.872C116.892 127.872 105.914 130.975 96.4445 136.394C107.371 136.394 118.453 133.668 128.598 127.872Z" stroke="#F8F8EA" stroke-miterlimit="10"/>
<path d="M88.7268 109.489C99.0459 119.692 112.92 126.517 128.598 127.872C127.263 126.757 125.997 125.591 124.766 124.408C114.29 115.594 101.647 110.604 88.7268 109.489V109.489Z" stroke="#F8F8EA" stroke-miterlimit="10"/>
<path d="M128.598 127.872C127.367 126.654 126.084 125.505 124.766 124.408C125.997 125.608 127.263 126.774 128.598 127.872Z" stroke="#F8F8EA" stroke-miterlimit="10"/>
<path d="M107.214 153.079C116.163 146.889 123.656 138.366 128.616 127.872C119.025 134.508 111.845 143.287 107.214 153.079V153.079Z" stroke="#F8F8EA" stroke-miterlimit="10"/>
<path d="M125.702 160.658C129.448 150.507 130.645 139.275 128.598 127.872C124.592 138.76 123.794 150.009 125.702 160.658Z" stroke="#F8F8EA" stroke-miterlimit="10"/>
<path d="M128.598 127.872C131.633 139.052 137.513 148.74 145.248 156.371C142.421 145.928 136.888 136.068 128.598 127.872Z" stroke="#F8F8EA" stroke-miterlimit="10"/>
<path d="M128.598 127.872C140.652 137.869 155.341 142.756 169.944 142.756C160.007 134.508 147.502 129.192 133.801 128.094C132.084 128.094 130.35 128.026 128.616 127.872H128.598Z" stroke="#F8F8EA" stroke-miterlimit="10"/>
<path d="M171.106 116.623C158.186 115.508 144.849 118.235 132.986 125.128C131.564 126.088 130.125 127.031 128.598 127.889C130.35 127.889 132.067 127.975 133.784 128.112C147.537 128.215 160.457 123.996 171.089 116.623H171.106Z" stroke="#F8F8EA" stroke-miterlimit="10"/>
<path d="M128.598 127.872C130.333 128.027 132.067 128.079 133.784 128.096C132.067 127.958 130.35 127.872 128.598 127.872Z" stroke="#F8F8EA" stroke-miterlimit="10"/>
<path d="M156.885 94.5535C145.647 100.967 136.316 110.758 130.593 123.122C129.986 124.717 129.344 126.294 128.598 127.872C130.038 126.877 131.495 125.968 132.986 125.111C144.311 117.394 152.445 106.608 156.885 94.5535V94.5535Z" stroke="#F8F8EA" stroke-miterlimit="10"/>
<path d="M128.598 127.872C130.107 127.014 131.564 126.071 132.986 125.111C131.512 125.968 130.038 126.877 128.598 127.872Z" stroke="#F8F8EA" stroke-miterlimit="10"/>
<path d="M132.431 84.5391C126.951 96.1653 124.974 109.489 127.471 122.864C127.905 124.511 128.286 126.174 128.598 127.872C129.188 126.243 129.864 124.665 130.593 123.122C135.397 110.381 135.796 96.9369 132.431 84.5391V84.5391Z" stroke="#F8F8EA" stroke-miterlimit="10"/>
<path d="M128.598 127.872C129.344 126.311 129.986 124.716 130.593 123.122C129.882 124.665 129.205 126.242 128.598 127.872Z" stroke="#F8F8EA" stroke-miterlimit="10"/>
<path d="M106.607 90.1978C108.862 102.836 114.967 114.856 124.766 124.391C126.066 125.488 127.367 126.637 128.598 127.854C128.147 126.191 127.783 124.511 127.471 122.847C124.02 109.678 116.545 98.4459 106.59 90.1978H106.607Z" stroke="#F8F8EA" stroke-miterlimit="10"/>
<path d="M128.598 127.872C128.286 126.174 127.905 124.494 127.471 122.865C127.783 124.528 128.147 126.208 128.598 127.872Z" stroke="#F8F8EA" stroke-miterlimit="10"/>
<path d="M129.916 160.658C152.665 160.658 171.106 142.662 171.106 120.464C171.106 98.2647 152.665 80.269 129.916 80.269C107.168 80.269 88.7268 98.2647 88.7268 120.464C88.7268 142.662 107.168 160.658 129.916 160.658Z" fill="black" stroke="#F8F8EA" stroke-miterlimit="10"/>
<path d="M129.916 160.658C152.665 160.658 171.106 142.662 171.106 120.464C171.106 98.2647 152.665 80.269 129.916 80.269C107.168 80.269 88.7268 98.2647 88.7268 120.464C88.7268 142.662 107.168 160.658 129.916 160.658Z" fill="black" stroke="#F8F8EA" stroke-miterlimit="10"/>
</g>
<defs>
<radialGradient id="paint0_diamond_220_1951" cx="0" cy="0" r="1" gradientUnits="userSpaceOnUse" gradientTransform="translate(121.953 242.949) rotate(96.9382) scale(16.6869 43.7512)">
<stop offset="0.411458" stop-color="#FDE0C3"/>
<stop offset="0.520833" stop-color="white" stop-opacity="0"/>
<stop offset="0.791667" stop-color="#FDE0C3"/>
</radialGradient>
<radialGradient id="paint1_diamond_220_1951" cx="0" cy="0" r="1" gradientUnits="userSpaceOnUse" gradientTransform="translate(196.535 223.875) rotate(54.1393) scale(15.4841 34.26)">
<stop offset="0.411458" stop-color="#FDE0C3"/>
<stop offset="0.520833" stop-color="white" stop-opacity="0"/>
<stop offset="0.791667" stop-color="#FDE0C3"/>
</radialGradient>
<radialGradient id="paint2_diamond_220_1951" cx="0" cy="0" r="1" gradientUnits="userSpaceOnUse" gradientTransform="translate(239.874 167.655) rotate(106.596) scale(33.522 14.1561)">
<stop offset="0.411458" stop-color="#FDE0C3"/>
<stop offset="0.520833" stop-color="white" stop-opacity="0"/>
<stop offset="0.791667" stop-color="#FDE0C3"/>
</radialGradient>
<radialGradient id="paint3_diamond_220_1951" cx="0" cy="0" r="1" gradientUnits="userSpaceOnUse" gradientTransform="translate(244.409 98.3845) rotate(73.2387) scale(36.6963 12.8375)">
<stop offset="0.411458" stop-color="#FDE0C3"/>
<stop offset="0.520833" stop-color="white" stop-opacity="0"/>
<stop offset="0.791667" stop-color="#FDE0C3"/>
</radialGradient>
<radialGradient id="paint4_diamond_220_1951" cx="0" cy="0" r="1" gradientUnits="userSpaceOnUse" gradientTransform="translate(205.102 38.1492) rotate(40.1689) scale(38.9091 11.9082)">
<stop offset="0.411458" stop-color="#FDE0C3"/>
<stop offset="0.520833" stop-color="white" stop-opacity="0"/>
<stop offset="0.791667" stop-color="#FDE0C3"/>
</radialGradient>
<radialGradient id="paint5_diamond_220_1951" cx="0" cy="0" r="1" gradientUnits="userSpaceOnUse" gradientTransform="translate(140.094 10.5413) rotate(94.9892) scale(11.589 36.8022)">
<stop offset="0.411458" stop-color="#FDE0C3"/>
<stop offset="0.520833" stop-color="white" stop-opacity="0"/>
<stop offset="0.791667" stop-color="#FDE0C3"/>
</radialGradient>
<radialGradient id="paint6_diamond_220_1951" cx="0" cy="0" r="1" gradientUnits="userSpaceOnUse" gradientTransform="translate(69.5434 27.106) rotate(60.6551) scale(14.3963 35.1145)">
<stop offset="0.411458" stop-color="#FDE0C3"/>
<stop offset="0.520833" stop-color="white" stop-opacity="0"/>
<stop offset="0.791667" stop-color="#FDE0C3"/>
</radialGradient>
<radialGradient id="paint7_diamond_220_1951" cx="0" cy="0" r="1" gradientUnits="userSpaceOnUse" gradientTransform="translate(20.6614 79.3099) rotate(115.858) scale(32.3529 14.1314)">
<stop offset="0.411458" stop-color="#FDE0C3"/>
<stop offset="0.520833" stop-color="white" stop-opacity="0"/>
<stop offset="0.791667" stop-color="#FDE0C3"/>
</radialGradient>
<radialGradient id="paint8_diamond_220_1951" cx="0" cy="0" r="1" gradientUnits="userSpaceOnUse" gradientTransform="translate(11.0866 148.58) rotate(78.6467) scale(35.8385 11.9148)">
<stop offset="0.411458" stop-color="#FDE0C3"/>
<stop offset="0.520833" stop-color="white" stop-opacity="0"/>
<stop offset="0.791667" stop-color="#FDE0C3"/>
</radialGradient>
<radialGradient id="paint9_diamond_220_1951" cx="0" cy="0" r="1" gradientUnits="userSpaceOnUse" gradientTransform="translate(53.9212 214.337) rotate(128.477) scale(15.3886 42.9982)">
<stop offset="0.411458" stop-color="#FDE0C3"/>
<stop offset="0.520833" stop-color="white" stop-opacity="0"/>
<stop offset="0.791667" stop-color="#FDE0C3"/>
</radialGradient>
<linearGradient id="paint10_linear_220_1951" x1="203.432" y1="180.409" x2="132.181" y2="183.268" gradientUnits="userSpaceOnUse">
<stop offset="0.390354" stop-color="#929292"/>
<stop offset="0.784757" stop-color="#1D1D1B"/>
</linearGradient>
<linearGradient id="paint11_linear_220_1951" x1="239.923" y1="149.747" x2="156.788" y2="154.815" gradientUnits="userSpaceOnUse">
<stop offset="0.390354" stop-color="#929292"/>
<stop offset="0.784757" stop-color="#1D1D1B"/>
</linearGradient>
<linearGradient id="paint12_linear_220_1951" x1="243.039" y1="105.275" x2="157.583" y2="110.487" gradientUnits="userSpaceOnUse">
<stop offset="0.390354" stop-color="#929292"/>
<stop offset="0.784757" stop-color="#1D1D1B"/>
</linearGradient>
<linearGradient id="paint13_linear_220_1951" x1="207.392" y1="67.5203" x2="147.268" y2="69.9958" gradientUnits="userSpaceOnUse">
<stop offset="0.390354" stop-color="#929292"/>
<stop offset="0.784757" stop-color="#1D1D1B"/>
</linearGradient>
<linearGradient id="paint14_linear_220_1951" x1="168.523" y1="49.573" x2="100.778" y2="52.0019" gradientUnits="userSpaceOnUse">
<stop offset="0.390354" stop-color="#929292"/>
<stop offset="0.784757" stop-color="#1D1D1B"/>
</linearGradient>
<linearGradient id="paint15_linear_220_1951" x1="120.483" y1="59.8153" x2="60.1931" y2="62.0281" gradientUnits="userSpaceOnUse">
<stop offset="0.390354" stop-color="#929292"/>
<stop offset="0.784757" stop-color="#1D1D1B"/>
</linearGradient>
<linearGradient id="paint16_linear_220_1951" x1="100.516" y1="93.2313" x2="20.3493" y2="98.0925" gradientUnits="userSpaceOnUse">
<stop offset="0.390354" stop-color="#929292"/>
<stop offset="0.784757" stop-color="#1D1D1B"/>
</linearGradient>
<linearGradient id="paint17_linear_220_1951" x1="152.337" y1="187.825" x2="92.5259" y2="189.606" gradientUnits="userSpaceOnUse">
<stop offset="0.390354" stop-color="#929292"/>
<stop offset="0.784757" stop-color="#1D1D1B"/>
</linearGradient>
<linearGradient id="paint18_linear_220_1951" x1="116.313" y1="173.956" x2="54.3185" y2="176.446" gradientUnits="userSpaceOnUse">
<stop offset="0.390354" stop-color="#929292"/>
<stop offset="0.784757" stop-color="#1D1D1B"/>
</linearGradient>
<linearGradient id="paint19_linear_220_1951" x1="111.64" y1="137.565" x2="8.56526" y2="144.855" gradientUnits="userSpaceOnUse">
<stop offset="0.390354" stop-color="#929292"/>
<stop offset="0.784757" stop-color="#1D1D1B"/>
</linearGradient>
<clipPath id="clip0_220_1951">
<rect width="256" height="256" fill="white"/>
</clipPath>
</defs>
</svg>
